<svg width="172" height="198" viewBox="0 0 172 198" fill="none" xmlns="http://www.w3.org/2000/svg">
<path d="M42.3 173.3L-9.53674e-07 148.7V99V49.3L42.3 24.9C65.5 11.5 85.2 0.499999 86 0.499999C86.8 0.499999 106.5 11.5 129.8 24.9L172 49.3V99V148.7L130 172.9C106.9 186.3 87.2 197.3 86.3 197.5C85.3 197.7 65.5 186.8 42.3 173.3ZM126.9 168.9L167 145.7V99V52.2L126.9 29.1C104.9 16.4 86.5 6 86 6C85.5 6 67.1 16.4 45.1 29.1L5 52.2V99V145.7L44.7 168.8C66.6 181.5 85 191.9 85.7 191.9C86.3 192 104.9 181.6 126.9 168.9Z" fill="#F3FF11"/>
<path d="M56.8 147.4C56.5 146.9 57.9 143.1 60 139.1L63.7 131.6L58.8 126.8C55.9 124 52.6 119.3 50.7 115.3C47.8 109.1 47.5 107.6 47.5 99C47.5 90.4 47.8 88.9 50.7 82.8C56.2 71.2 65.9 63.5 78.8 60.7C84.1 59.5 84.7 59.1 87 54.7L89.5 50L98 50.1C102.7 50.1 108.6 50.5 111.2 50.8L116 51.5L111.6 58.5L107.2 65.4L112.6 70.6C116.1 74 119.2 78.3 121.3 82.7C124.2 88.9 124.5 90.4 124.5 99C124.5 107.6 124.2 109.1 121.3 115.2C113.1 132.6 93.4 141.8 75.4 136.5L69.5 134.8L63.4 141.6C60.1 145.3 57.1 147.9 56.8 147.4ZM90 109.2C101.1 96.9 109.9 86.6 109.5 86.2C109.2 85.8 105.3 85.3 100.9 85.1C96.6 85 93 84.3 93 83.8C93 83.3 97.3 76.3 102.6 68.3C107.8 60.3 112 53.7 111.8 53.5C111.6 53.3 106.8 52.9 101 52.5L90.5 51.8L79.5 73.5C73.5 85.4 68.4 95.5 68.2 96.1C68 96.6 71.1 97 75.4 97C80.5 97 83 97.4 83 98.1C83 98.8 78.7 107.6 73.5 117.8C68.3 128 64 136.5 64 136.9C64 137.7 66.5 135 90 109.2ZM96.8 134.2C112.2 129.4 123 114.8 123 99C123 88.8 117 76.1 109.4 70.4C107.5 68.9 105.8 67.9 105.6 68.1C103.6 70.6 97 81.1 97 81.9C97 82.5 100.7 83 105.8 83.2C111.4 83.4 114.5 83.9 114.5 84.6C114.5 85.2 105.1 96.1 93.6 108.7C82.1 121.4 72.6 132.1 72.6 132.6C72.5 133.9 79.9 135.8 85.7 135.9C88.5 136 93.5 135.2 96.8 134.2ZM72.8 113.9C76.7 106.4 79.6 100 79.3 99.6C78.9 99.3 75.4 99 71.3 99C67.3 99 64 98.8 64 98.6C64 98.4 68.1 90.5 73 81.1C78 71.7 82 63.5 82 63C82 61.8 78.6 62.5 71.1 65.3C63.6 68 55 76.8 52 84.6C47.4 96.7 48.6 108.8 55.2 119.2C58.6 124.6 63.9 129.5 65 128.3C65.4 127.9 68.9 121.4 72.8 113.9Z" fill="#F3FF11"/>
</svg>
